<svg width="117" height="117" viewBox="0 0 117 117" fill="none" xmlns="http://www.w3.org/2000/svg">
<circle cx="58.5" cy="58.5" r="58.5" fill="#3BC53D" fill-opacity="0.17"/>
<path fill-rule="evenodd" clip-rule="evenodd" d="M59.0003 28.1666C56.5614 28.1666 54.2211 29.1348 52.4945 30.8615L49.741 33.6149C49.1688 34.1793 48.3988 34.4979 47.595 34.5029H43.707C42.4982 34.5025 41.3012 34.7403 40.1843 35.2026C39.0675 35.665 38.0527 36.343 37.198 37.1977C36.3433 38.0524 35.6654 39.0672 35.203 40.184C34.7406 41.3009 34.5028 42.4979 34.5032 43.7066V47.5978C34.4982 48.4015 34.1796 49.1715 33.6152 49.7438L30.8618 52.4972C29.1363 54.2227 28.167 56.5629 28.167 59.003C28.167 61.4432 29.1363 63.7834 30.8618 65.5089L33.6152 68.2623C34.1796 68.8345 34.4982 69.6046 34.5032 70.4083V74.2995C34.5032 76.7396 35.4726 79.0799 37.198 80.8053C38.9235 82.5308 41.2637 83.5001 43.7039 83.5001H47.595C48.3998 83.5001 49.1737 83.8208 49.741 84.3881L52.4945 87.1415C54.2199 88.867 56.5601 89.8363 59.0003 89.8363C61.4404 89.8363 63.7807 88.867 65.5061 87.1415L68.2595 84.3881C68.8318 83.8237 69.6018 83.5051 70.4055 83.5001H74.2967C76.7369 83.5001 79.0771 82.5308 80.8026 80.8053C82.528 79.0799 83.4974 76.7396 83.4974 74.2995V70.4083C83.4974 69.6035 83.818 68.8296 84.3854 68.2623L87.1388 65.5089C88.8642 63.7834 89.8336 61.4432 89.8336 59.003C89.8336 56.5629 88.8642 54.2227 87.1388 52.4972L84.3854 49.7438C83.821 49.1715 83.5023 48.4015 83.4974 47.5978V43.7066C83.4974 41.2665 82.528 38.9262 80.8026 37.2008C79.0771 35.4753 76.7369 34.506 74.2967 34.506H70.4055C69.6018 34.501 68.8318 34.1823 68.2595 33.618L65.5061 30.8645C64.6524 30.0091 63.6383 29.3304 62.522 28.8675C61.4056 28.4045 60.2088 28.1664 59.0003 28.1666ZM70.3562 52.0008C70.6574 51.718 70.8986 51.3775 71.0657 50.9996C71.2327 50.6217 71.3221 50.2141 71.3285 49.801C71.3349 49.3879 71.2582 48.9777 71.103 48.5949C70.9478 48.212 70.7172 47.8642 70.425 47.5721C70.1327 47.2801 69.7848 47.0498 69.4018 46.8948C69.0188 46.7399 68.6085 46.6635 68.1954 46.6702C67.7823 46.6769 67.3748 46.7666 66.997 46.9339C66.6193 47.1012 66.279 47.3427 65.9964 47.644L52.8829 60.7575L48.9455 56.82C48.3674 56.2415 47.5831 55.9163 46.7652 55.916C45.9473 55.9157 45.1627 56.2404 44.5842 56.8185C44.0056 57.3967 43.6804 58.181 43.6801 58.9989C43.6798 59.8168 44.0045 60.6013 44.5826 61.1799L50.703 67.2972C51.2812 67.8752 52.0654 68.2 52.8829 68.2C53.7005 68.2 54.4847 67.8752 55.0629 67.2972L70.3562 52.0039V52.0008Z" fill="#3BC53D"/>
</svg>
